<?xml version="1.0" encoding="utf-8"?>
<!-- Generator: Adobe Illustrator 23.1.0, SVG Export Plug-In . SVG Version: 6.00 Build 0)  -->
<svg version="1.1" xmlns="http://www.w3.org/2000/svg" xmlns:xlink="http://www.w3.org/1999/xlink" x="0px" y="0px"
	 viewBox="0 0 128 125" style="enable-background:new 0 0 128 125;" xml:space="preserve">
<style type="text/css">
	.st0{fill:#826A3E;}
</style>
<g id="Ebene_1">
	<g>
		<title>Artboard 6</title>
		<path class="st0" d="M106.9,74.9l-14-42c-0.2-0.6-0.7-1.1-1.3-1.3l-37-11c-0.7-0.2-1.5,0-2,0.5l-31,31c-0.5,0.5-0.7,1.3-0.5,2.1
			l15,44c0.2,0.7,0.9,1.3,1.6,1.4l36,5H74c0.5,0,0.9-0.2,1.3-0.5l31-27C106.9,76.5,107.2,75.6,106.9,74.9z M39.5,95.5l7.2-34.9
			l33.1,34L39.5,95.5z M92.3,45.2l-45,11.9l7.1-31.8L92.3,45.2z M45.3,57.3l-19.1-4.1l25.7-25.7L45.3,57.3z M81.4,93.4L47.9,59
			l45.5-12.1l0.1,0.3l-12,46L81.4,93.4z M92,42.8l-30.5-16l28,8.3L92,42.8z M25.7,55.1l19.2,4.2l-6.7,32.5L25.7,55.1z M73.4,100.4
			l-22.9-3.2l27.2-0.6L73.4,100.4z M84.2,91l10.4-40.2l8,24.1L84.2,91z M56.7,49c0.2-1.4,0.9-2.8,1.8-3.8c0.7-0.8,1.3-1.7,1.8-2.6
			c0.3-0.7,0.4-1.4,0.1-2.1c-0.2-0.5-0.6-1-1.1-1.3s-1.2-0.4-1.7-0.2c-0.9,0.2-1.4,0.6-1.5,1.3c0,0.6,0.1,1.2,0.4,1.7l-3,0.7
			c-0.4-0.9-0.5-2-0.4-3c0.3-1.5,1.4-2.5,3.4-2.9c1.4-0.4,2.9-0.2,4.2,0.3c1.2,0.5,2.2,1.5,2.7,2.7c0.4,0.9,0.5,1.9,0.2,2.9
			c-0.3,0.8-0.8,1.6-1.3,2.3l-0.8,1.1c-0.5,0.7-0.9,1.2-1.1,1.5c-0.1,0.3-0.2,0.6-0.3,0.9l6.6-1.7l1.1,2.5l-10.6,2.9
			C56.7,51.1,56.6,50.1,56.7,49z M71.6,35.3c1.5,1.2,2.6,2.8,3.4,4.6c0.9,1.6,1.5,3.4,1.5,5.3c-0.1,1.4-1.1,2.4-2.9,2.9
			c-1.6,0.5-3.4,0.2-4.8-0.8c-1.5-1.3-2.8-3-3.5-4.9c-0.9-1.6-1.3-3.4-1.2-5.3c0.2-1.3,1.2-2.1,3-2.5C68.7,34,70.3,34.4,71.6,35.3z
			 M70.3,45c0.5,0.7,1.4,1,2.3,0.8c0.7-0.1,1.2-0.8,1-1.5c0-0.1,0-0.1,0-0.2c-0.3-1.2-0.7-2.4-1.3-3.6c-0.5-1.2-1.2-2.3-2.1-3.3
			c-0.5-0.6-1.3-0.9-2.1-0.7c-0.7,0.1-1.2,0.7-1.1,1.4V38c0.2,1.2,0.6,2.4,1.2,3.5C68.8,42.7,69.5,43.9,70.3,45z"/>
	</g>
</g>
<g id="Ebene_2">
</g>
</svg>
