<svg id="Ebene_1" data-name="Ebene 1" xmlns="http://www.w3.org/2000/svg" viewBox="0 0 17.4 20.95"><defs><style>.cls-1,.cls-2{fill:#806b40;}.cls-2{opacity:0;}.cls-3,.cls-4{fill:#010101;}.cls-3{opacity:0.3;}.cls-4{opacity:0.5;}</style></defs><title>schild</title><path class="cls-1" d="M17.4,1.9C17.4,9.72,15.59,16,8.7,21,1.81,16,0,9.72,0,1.9.56,1.39,5.07,0,8.7,0S16.84,1.39,17.4,1.9Z"/><path class="cls-2" d="M3.36,12.11A25.44,25.44,0,0,1,1.67,2.58,19.56,19.56,0,0,1,4,1.89a21.49,21.49,0,0,1,4.7-.62V0C5.07,0,.56,1.38,0,1.9,0,9.71,1.82,16,8.7,21v-1.8A17.73,17.73,0,0,1,3.36,12.11Z"/><path class="cls-3" d="M1.67,2.58a25.44,25.44,0,0,0,1.69,9.53,17.73,17.73,0,0,0,5.34,7V1.27A21.49,21.49,0,0,0,4,1.89,19.56,19.56,0,0,0,1.67,2.58Z"/><path class="cls-3" d="M14.05,12.11a25.26,25.26,0,0,0,1.68-9.53,18.7,18.7,0,0,0-2.32-.69A21.65,21.65,0,0,0,8.7,1.27V0c3.63,0,8.14,1.38,8.7,1.9C17.4,9.71,15.59,16,8.7,21v-1.8A17.76,17.76,0,0,0,14.05,12.11Z"/><path class="cls-4" d="M15.73,2.58a25.26,25.26,0,0,1-1.68,9.53,17.76,17.76,0,0,1-5.35,7V1.27a21.65,21.65,0,0,1,4.71.62A18.7,18.7,0,0,1,15.73,2.58Z"/></svg>