<?xml version="1.0" encoding="utf-8"?>
<!-- Generator: Adobe Illustrator 23.1.0, SVG Export Plug-In . SVG Version: 6.00 Build 0)  -->
<svg version="1.1" xmlns="http://www.w3.org/2000/svg" xmlns:xlink="http://www.w3.org/1999/xlink" x="0px" y="0px"
	 viewBox="0 0 192.1 192.2" style="enable-background:new 0 0 192.1 192.2;" xml:space="preserve">
<style type="text/css">
	.st0{fill:url(#SVGID_1_);}
	.st1{fill:url(#SVGID_2_);}
</style>
<g id="Ebene_1">
</g>
<g id="Ebene_2">
	<radialGradient id="SVGID_1_" cx="96.0775" cy="96.0779" r="95.7275" gradientUnits="userSpaceOnUse">
		<stop  offset="0.5275" style="stop-color:#A38F6C"/>
		<stop  offset="0.7225" style="stop-color:#A38F6C"/>
		<stop  offset="0.8775" style="stop-color:#8D764D"/>
		<stop  offset="0.9825" style="stop-color:#887046"/>
	</radialGradient>
	<path class="st0" d="M35.6,104.3H0.4c3.9,46.5,41,83.6,87.5,87.5v-35.3C60.7,152.9,39.2,131.4,35.6,104.3z M0.4,87.9h35.3
		c3.6-27.2,25.1-48.7,52.3-52.3V0.3C41.4,4.3,4.3,41.4,0.4,87.9z M156.6,104.3c-3.6,27.2-25.1,48.7-52.3,52.3v35.3
		c46.5-3.9,83.6-41,87.6-87.5H156.6z M104.3,0.3v35.3c27.2,3.6,48.7,25.1,52.3,52.3h35.3C187.9,41.4,150.8,4.3,104.3,0.3z"/>
	<radialGradient id="SVGID_2_" cx="96.0725" cy="96.0779" r="28.21" gradientUnits="userSpaceOnUse">
		<stop  offset="0.8775" style="stop-color:#8D764D"/>
		<stop  offset="0.9825" style="stop-color:#887046"/>
	</radialGradient>
	<path class="st1" d="M124.3,96.1c0,2.8-0.4,5.6-1.2,8.2c-2.7,9-9.8,16.1-18.8,18.8c-2.6,0.8-5.3,1.2-8.2,1.2
		c-2.8,0-5.6-0.4-8.2-1.2c-9-2.7-16.1-9.8-18.8-18.8c-0.8-2.6-1.2-5.3-1.2-8.2c0-2.8,0.4-5.6,1.2-8.2c2.7-9,9.8-16.1,18.8-18.8
		c2.6-0.8,5.3-1.2,8.2-1.2c2.8,0,5.6,0.4,8.2,1.2c9,2.7,16.1,9.8,18.8,18.8C123.9,90.5,124.3,93.2,124.3,96.1z"/>
</g>
</svg>
